<svg width="618" height="149" viewBox="0 0 618 149" fill="none" xmlns="http://www.w3.org/2000/svg">
<path d="M11.392 142.016C2.752 142.016 -4.928 139.952 -11.648 135.824C-18.368 131.696 -23.648 125.696 -27.488 117.824C-31.232 109.856 -33.104 100.448 -33.104 89.6C-33.104 78.752 -31.232 69.392 -27.488 61.52C-23.648 53.552 -18.368 47.504 -11.648 43.376C-4.928 39.248 2.752 37.184 11.392 37.184C19.936 37.184 27.568 39.248 34.288 43.376C41.008 47.504 46.24 53.552 49.984 61.52C53.824 69.392 55.744 78.752 55.744 89.6C55.744 100.448 53.824 109.856 49.984 117.824C46.24 125.696 41.008 131.696 34.288 135.824C27.568 139.952 19.936 142.016 11.392 142.016ZM11.392 118.688C16.192 118.688 19.984 116.384 22.768 111.776C25.648 107.072 27.088 99.68 27.088 89.6C27.088 79.52 25.648 72.176 22.768 67.568C19.984 62.864 16.192 60.512 11.392 60.512C6.496 60.512 2.608 62.864 -0.271996 67.568C-3.056 72.176 -4.448 79.52 -4.448 89.6C-4.448 99.68 -3.056 107.072 -0.271996 111.776C2.608 116.384 6.496 118.688 11.392 118.688ZM142.253 117.392V140H63.7731V122.144L101.501 86.864C105.149 83.408 107.597 80.48 108.845 78.08C110.093 75.584 110.717 73.088 110.717 70.592C110.717 67.328 109.613 64.784 107.405 62.96C105.197 61.136 101.981 60.224 97.7571 60.224C94.0131 60.224 90.5571 61.088 87.3891 62.816C84.3171 64.448 81.7731 66.848 79.7571 70.016L58.5891 58.208C62.5251 51.68 68.0451 46.544 75.1491 42.8C82.2531 39.056 90.6531 37.184 100.349 37.184C108.029 37.184 114.797 38.432 120.653 40.928C126.605 43.424 131.213 47.024 134.477 51.728C137.837 56.336 139.517 61.712 139.517 67.856C139.517 73.328 138.317 78.512 135.917 83.408C133.613 88.208 129.101 93.68 122.381 99.824L103.373 117.392H142.253Z" fill="black" fill-opacity="0.1"/>
<path d="M210.992 81.6V132H199.256L177.008 105.144V132H163.04V81.6H174.776L197.024 108.456V81.6H210.992ZM246.464 133.008C241.136 133.008 236.336 131.88 232.064 129.624C227.84 127.368 224.504 124.248 222.056 120.264C219.656 116.28 218.456 111.792 218.456 106.8C218.456 101.808 219.656 97.32 222.056 93.336C224.504 89.352 227.84 86.232 232.064 83.976C236.336 81.72 241.136 80.592 246.464 80.592C251.792 80.592 256.568 81.72 260.792 83.976C265.064 86.232 268.4 89.352 270.8 93.336C273.248 97.32 274.472 101.808 274.472 106.8C274.472 111.792 273.248 116.28 270.8 120.264C268.4 124.248 265.064 127.368 260.792 129.624C256.568 131.88 251.792 133.008 246.464 133.008ZM246.464 121.2C249.008 121.2 251.312 120.6 253.376 119.4C255.44 118.2 257.072 116.52 258.272 114.36C259.472 112.152 260.072 109.632 260.072 106.8C260.072 103.968 259.472 101.472 258.272 99.312C257.072 97.104 255.44 95.4 253.376 94.2C251.312 93 249.008 92.4 246.464 92.4C243.92 92.4 241.616 93 239.552 94.2C237.488 95.4 235.856 97.104 234.656 99.312C233.456 101.472 232.856 103.968 232.856 106.8C232.856 109.632 233.456 112.152 234.656 114.36C235.856 116.52 237.488 118.2 239.552 119.4C241.616 120.6 243.92 121.2 246.464 121.2ZM331.301 81.6L309.701 132H295.661L274.133 81.6H289.541L303.221 114.432L317.189 81.6H331.301ZM374.715 120.984V132H334.251V81.6H373.779V92.616H348.363V101.112H370.755V111.768H348.363V120.984H374.715ZM428.13 132L427.986 105.288L415.026 127.032H408.69L395.802 106.008V132H382.626V81.6H394.362L412.074 110.688L429.354 81.6H441.09L441.234 132H428.13ZM490.057 105.72C492.937 106.728 495.193 108.312 496.825 110.472C498.457 112.584 499.273 115.152 499.273 118.176C499.273 122.592 497.497 126 493.945 128.4C490.393 130.8 485.257 132 478.537 132H451.321V81.6H477.097C483.529 81.6 488.425 82.8 491.785 85.2C495.145 87.552 496.825 90.744 496.825 94.776C496.825 97.176 496.225 99.336 495.025 101.256C493.873 103.128 492.217 104.616 490.057 105.72ZM465.433 91.896V101.616H475.225C480.025 101.616 482.425 99.984 482.425 96.72C482.425 93.504 480.025 91.896 475.225 91.896H465.433ZM477.385 121.704C482.377 121.704 484.873 120 484.873 116.592C484.873 113.184 482.377 111.48 477.385 111.48H465.433V121.704H477.385ZM547.121 120.984V132H506.657V81.6H546.185V92.616H520.769V101.112H543.161V111.768H520.769V120.984H547.121ZM577.064 118.608H569.288V132H555.032V81.6H578.072C582.632 81.6 586.592 82.368 589.952 83.904C593.312 85.392 595.904 87.552 597.728 90.384C599.552 93.168 600.464 96.456 600.464 100.248C600.464 103.896 599.6 107.088 597.872 109.824C596.192 112.512 593.768 114.624 590.6 116.16L601.472 132H586.208L577.064 118.608ZM586.064 100.248C586.064 97.896 585.32 96.072 583.832 94.776C582.344 93.48 580.136 92.832 577.208 92.832H569.288V107.592H577.208C580.136 107.592 582.344 106.968 583.832 105.72C585.32 104.424 586.064 102.6 586.064 100.248Z" fill="black" fill-opacity="0.1"/>
</svg>
